<svg width="48" height="48" viewBox="0 0 48 48" fill="none" xmlns="http://www.w3.org/2000/svg">
<g clip-path="url(#clip0_1_87)">
<path d="M14.8333 29H9.83333C9.37333 29 9 28.6267 9 28.1667V23.1667C9 22.7067 9.37333 22.3333 9.83333 22.3333H14.8333C15.2933 22.3333 15.6667 22.7067 15.6667 23.1667V28.1667C15.6667 28.6267 15.2933 29 14.8333 29ZM10.6667 27.3333H14V24H10.6667V27.3333Z" fill="black"/>
<path d="M14.8333 39H9.83333C9.37333 39 9 38.6267 9 38.1667V33.1667C9 32.7067 9.37333 32.3333 9.83333 32.3333H14.8333C15.2933 32.3333 15.6667 32.7067 15.6667 33.1667V38.1667C15.6667 38.6267 15.2933 39 14.8333 39ZM10.6667 37.3333H14V34H10.6667V37.3333Z" fill="black"/>
<path d="M26.5 29H21.5C21.04 29 20.6667 28.6267 20.6667 28.1667V23.1667C20.6667 22.7067 21.04 22.3333 21.5 22.3333H26.5C26.96 22.3333 27.3333 22.7067 27.3333 23.1667V28.1667C27.3333 28.6267 26.96 29 26.5 29ZM22.3333 27.3333H25.6667V24H22.3333V27.3333Z" fill="black"/>
<path d="M26.5 39H21.5C21.04 39 20.6667 38.6267 20.6667 38.1667V33.1667C20.6667 32.7067 21.04 32.3333 21.5 32.3333H26.5C26.96 32.3333 27.3333 32.7067 27.3333 33.1667V38.1667C27.3333 38.6267 26.96 39 26.5 39ZM22.3333 37.3333H25.6667V34H22.3333V37.3333Z" fill="black"/>
<path d="M38.1667 29H33.1667C32.7067 29 32.3333 28.6267 32.3333 28.1667V23.1667C32.3333 22.7067 32.7067 22.3333 33.1667 22.3333H38.1667C38.6267 22.3333 39 22.7067 39 23.1667V28.1667C39 28.6267 38.6267 29 38.1667 29ZM34 27.3333H37.3333V24H34V27.3333Z" fill="black"/>
<path d="M39.8333 44H8.16667C5.87 44 4 42.13 4 39.8333V11.5C4 9.20334 5.87 7.33334 8.16667 7.33334H39.8333C42.13 7.33334 44 9.20334 44 11.5V39.8333C44 42.13 42.13 44 39.8333 44ZM8.16667 9C6.78833 9 5.66667 10.1217 5.66667 11.5V39.8333C5.66667 41.2117 6.78833 42.3333 8.16667 42.3333H39.8333C41.2117 42.3333 42.3333 41.2117 42.3333 39.8333V11.5C42.3333 10.1217 41.2117 9 39.8333 9H8.16667Z" fill="black"/>
<path d="M43.1667 19H4.83333C4.37333 19 4 18.6267 4 18.1667C4 17.7067 4.37333 17.3333 4.83333 17.3333H43.1667C43.6267 17.3333 44 17.7067 44 18.1667C44 18.6267 43.6267 19 43.1667 19Z" fill="black"/>
<path d="M13.1667 12.3333C12.7067 12.3333 12.3333 11.96 12.3333 11.5V4.83333C12.3333 4.37333 12.7067 3.99999 13.1667 3.99999C13.6267 3.99999 14 4.37333 14 4.83333V11.5C14 11.96 13.6267 12.3333 13.1667 12.3333Z" fill="black"/>
<path d="M34.8333 12.3333C34.3733 12.3333 34 11.96 34 11.5V4.83333C34 4.37333 34.3733 3.99999 34.8333 3.99999C35.2933 3.99999 35.6667 4.37333 35.6667 4.83333V11.5C35.6667 11.96 35.2933 12.3333 34.8333 12.3333Z" fill="black"/>
</g>
<defs>
<clipPath id="clip0_1_87">
<rect width="40" height="40" fill="white" transform="translate(4 4)"/>
</clipPath>
</defs>
</svg>
