<svg width="48" height="36" viewBox="0 0 48 36" fill="none" xmlns="http://www.w3.org/2000/svg">
<path d="M45.8542 26.2538L42.9503 25.4242C42.825 25.3883 42.7374 25.2723 42.7374 25.1419V24.1726C42.9737 24.0089 43.1991 23.8257 43.4097 23.6212C44.4307 22.6305 44.9929 21.3016 44.9929 19.8792V18.5417L45.2737 17.9802C45.5818 17.3638 45.7447 16.6737 45.7447 15.9847V12.3612C45.7447 11.9729 45.4298 11.6581 45.0415 11.6581H38.2753C35.8149 11.6581 33.8132 13.6598 33.8132 16.1202V16.1621C33.8132 16.7351 33.9487 17.309 34.2049 17.8214L34.565 18.5416V19.69C34.565 21.5101 35.4619 23.1431 36.8204 24.1258L36.8206 25.1417C36.8206 25.2983 36.8206 25.3632 36.24 25.5292L34.8231 25.934L30.7242 24.4435C30.7389 24.2501 30.6737 24.0534 30.5326 23.9052L29.2228 22.5292V20.2191C29.3613 20.1051 29.4978 19.9879 29.6301 19.8639C31.2824 18.3152 32.23 16.1286 32.23 13.8648V12.02C32.729 10.9342 32.9818 9.78534 32.9818 8.60212V1.08431C32.9818 0.695993 32.667 0.381181 32.2787 0.381181H21.7535C18.0494 0.381181 15.036 3.39468 15.036 7.09865V8.60231C15.036 9.78552 15.2888 10.9344 15.7878 12.0202V13.6074C15.7878 16.2358 16.9565 18.6037 18.795 20.1649V22.5292L17.4852 23.9053C17.3441 24.0535 17.2789 24.2502 17.2936 24.4436L12.9675 26.0167C12.654 26.1306 12.3627 26.2851 12.0983 26.4721L11.4189 26.1324C13.4411 25.2522 14.0817 24.0142 14.1125 23.9527C14.2115 23.7548 14.2115 23.5218 14.1125 23.3239C13.6056 22.3101 13.5442 20.4518 13.4948 18.9588C13.4784 18.4617 13.4629 17.9921 13.4332 17.574C13.1934 14.2014 10.6296 11.6581 7.46925 11.6581C4.30894 11.6581 1.74497 14.2013 1.50534 17.574C1.47562 17.9922 1.46006 18.4618 1.44366 18.959C1.39434 20.4519 1.33284 22.31 0.826031 23.3238C0.727031 23.5217 0.727031 23.7547 0.826031 23.9526C0.856781 24.0141 1.49606 25.2496 3.52228 26.1308L1.63538 27.0742C0.626625 27.579 0 28.5929 0 29.7206V34.9152C0 35.3035 0.314812 35.6183 0.703125 35.6183C1.09144 35.6183 1.40625 35.3035 1.40625 34.9152V29.7206C1.40625 29.1289 1.73503 28.5968 2.26425 28.3322L4.61391 27.1574L5.43122 27.9341C6.00272 28.4772 6.73584 28.7486 7.46925 28.7486C8.20247 28.7486 8.93597 28.477 9.50728 27.9341L10.3245 27.1575L11.0906 27.5406C10.7299 28.1178 10.5251 28.7947 10.5251 29.5037V34.9154C10.5251 35.3037 10.8399 35.6185 11.2282 35.6185C11.6166 35.6185 11.9314 35.3037 11.9314 34.9154V29.5037C11.9314 28.5384 12.5408 27.6682 13.4481 27.3383L18.0092 25.6798L19.9079 28.528C20.1506 28.8922 20.5396 29.1257 20.9751 29.1688C21.0236 29.1736 21.0719 29.1759 21.1201 29.1759C21.5043 29.1759 21.8723 29.0247 22.1473 28.7497L23.3057 27.5914V34.9155C23.3057 35.3038 23.6205 35.6186 24.0088 35.6186C24.3971 35.6186 24.7119 35.3038 24.7119 34.9155V27.5914L25.8703 28.7497C26.1453 29.0248 26.5133 29.176 26.8975 29.176C26.9456 29.176 26.994 29.1737 27.0425 29.1689C27.478 29.1258 27.867 28.8922 28.1097 28.5281L30.0085 25.68L34.5696 27.3385C35.4767 27.6684 36.0863 28.5386 36.0863 29.5039V34.9156C36.0863 35.3039 36.4011 35.6187 36.7894 35.6187C37.1777 35.6187 37.4925 35.3039 37.4925 34.9156V29.5039C37.4925 28.5262 37.1041 27.6094 36.4525 26.9313L36.6263 26.8817C36.8015 26.8316 37.0405 26.7631 37.2805 26.6454L39.0758 28.4407V34.9156C39.0758 35.3039 39.3906 35.6187 39.7789 35.6187C40.1672 35.6187 40.482 35.3039 40.482 34.9156V28.4407L42.2648 26.6579C42.3595 26.7061 42.4591 26.7468 42.5639 26.7767L45.4679 27.6064C46.1307 27.7957 46.5938 28.4095 46.5938 29.099V34.9156C46.5938 35.3039 46.9086 35.6187 47.2969 35.6187C47.6852 35.6187 48 35.3039 48 34.9156V29.099C48 27.7848 47.1176 26.6149 45.8542 26.2538ZM4.51078 25.0119C3.19556 24.5387 2.53584 23.9077 2.25422 23.5632C2.44622 23.0613 2.57072 22.4864 2.655 21.8796C3.04275 22.8093 3.69216 23.603 4.51078 24.1692V25.0119ZM8.53875 26.9149C7.93903 27.4847 6.99956 27.4846 6.40003 26.9148L5.74613 26.2934C5.85647 26.0867 5.91713 25.8523 5.91713 25.6068V24.8573C6.40763 25.0106 6.92906 25.0933 7.46944 25.0933C8.00916 25.0933 8.53031 25.0102 9.02166 24.8578L9.02156 25.6067C9.02156 25.8523 9.08212 26.0868 9.19256 26.2936L8.53875 26.9149ZM7.46963 23.6871C5.37 23.6871 3.66197 21.9789 3.66197 19.8794C3.66197 19.4911 3.34716 19.1763 2.95884 19.1763C2.91947 19.1763 2.88103 19.1803 2.84344 19.1866C2.8455 19.1261 2.84747 19.0656 2.84953 19.0056C2.86519 18.5222 2.88028 18.0655 2.90812 17.6738C2.99794 16.4105 3.50278 15.2463 4.32966 14.3956C5.16394 13.5372 6.279 13.0645 7.46944 13.0645C8.65987 13.0645 9.77484 13.5372 10.6092 14.3956C11.4361 15.2463 11.9409 16.4105 12.0308 17.6738C12.0585 18.0654 12.0737 18.522 12.0896 19.0054C12.091 19.0469 12.0924 19.089 12.0938 19.1308C11.3288 17.9522 10.1474 17.0836 8.62088 16.5931C7.21059 16.14 5.99766 16.168 5.94647 16.1693C5.76234 16.1745 5.58759 16.2516 5.45981 16.3841L4.19119 17.6998C3.92166 17.9794 3.92972 18.4245 4.20928 18.694C4.48884 18.9636 4.93397 18.9554 5.2035 18.6759L6.25912 17.5812C7.16822 17.6257 10.0929 17.9658 11.2304 20.4705C10.9442 22.3162 9.35775 23.6871 7.46963 23.6871ZM10.4277 25.0143L10.4278 24.1757C11.2458 23.6125 11.8961 22.8203 12.2842 21.8836C12.3684 22.489 12.4928 23.0626 12.6845 23.5634C12.4044 23.9046 11.7416 24.5412 10.4277 25.0143ZM17.194 13.6073V11.8628C17.194 11.757 17.1701 11.6525 17.1241 11.5571C16.6717 10.6202 16.4422 9.62606 16.4422 8.60231V7.09874C16.4422 4.17009 18.8249 1.78752 21.7535 1.78752H31.5756V8.6024C31.5756 9.62615 31.3462 10.6203 30.8937 11.5572C30.8477 11.6526 30.8238 11.7571 30.8238 11.8629V13.865C30.8238 15.7691 30.0583 17.5353 28.6684 18.8381C28.4948 19.0007 28.3147 19.1531 28.1286 19.2951C28.1244 19.298 28.1205 19.3011 28.1165 19.304C26.8144 20.2926 25.2195 20.773 23.5539 20.6651C19.9876 20.4342 17.194 17.3341 17.194 13.6073ZM21.153 27.7552C21.1481 27.7601 21.1368 27.7716 21.1138 27.7692C21.0909 27.767 21.0819 27.7536 21.0781 27.7477L18.8914 24.4676L19.5951 23.7282L22.9124 25.9957L21.153 27.7552ZM24.0089 25.0418L20.2013 22.4392V21.1267C21.1865 21.6592 22.2896 21.9923 23.4629 22.0683C23.6483 22.0803 23.8325 22.0862 24.0161 22.0862C25.3606 22.0862 26.6545 21.7648 27.8166 21.1548V22.4392L24.0089 25.0418ZM26.9397 27.7479C26.9359 27.7537 26.9269 27.7671 26.904 27.7694C26.881 27.7723 26.8698 27.7602 26.8648 27.7554L25.1054 25.996L28.4227 23.7284L29.1265 24.4678L26.9397 27.7479ZM39.7789 27.1547L38.1833 25.5592C38.2111 25.4327 38.2268 25.2942 38.2268 25.1415L38.2267 24.8448C38.6694 24.9901 39.1361 25.0763 39.619 25.0908C39.6732 25.0925 39.7269 25.0932 39.7809 25.0932C40.3146 25.0932 40.8354 25.0126 41.3312 24.8587V25.1419C41.3312 25.2821 41.3488 25.4196 41.382 25.5517L39.7789 27.1547ZM42.4304 22.6121C41.6852 23.3353 40.7007 23.7172 39.6613 23.6852C37.6266 23.6242 35.9712 21.8319 35.9712 19.6902V18.3757C35.9712 18.2665 35.9458 18.1589 35.897 18.0613L35.4626 17.1926C35.3035 16.8743 35.2194 16.5181 35.2194 16.1622V16.1203C35.2194 14.4352 36.5903 13.0644 38.2753 13.0644H44.3384V15.9847C44.3384 16.4567 44.2268 16.9293 44.0158 17.3514L43.6609 18.0613C43.612 18.159 43.5866 18.2665 43.5866 18.3757V19.8793C43.5866 20.9181 43.176 21.8886 42.4304 22.6121Z" fill="#4486FB"/>
</svg>
